<?xml version="1.0" standalone="no"?>
<!DOCTYPE svg PUBLIC "-//W3C//DTD SVG 20010904//EN"
 "http://www.w3.org/TR/2001/REC-SVG-20010904/DTD/svg10.dtd">
<svg version="1.0" xmlns="http://www.w3.org/2000/svg"
 width="700.000000pt" height="700.000000pt" viewBox="0 0 700.000000 700.000000"
 preserveAspectRatio="xMidYMid meet">
<metadata>
Created by potrace 1.14, written by Peter Selinger 2001-2017
</metadata>
<g transform="translate(0.000000,700.000000) scale(0.100000,-0.100000)"
fill="#000000" stroke="none">
<path d="M3269 6996 c-2 -2 -42 -7 -89 -10 -132 -11 -199 -19 -260 -31 -14 -3
-38 -7 -55 -10 -71 -11 -108 -19 -250 -55 -384 -98 -708 -241 -1040 -458 -71
-46 -132 -87 -135 -91 -3 -4 -16 -14 -30 -23 -139 -87 -452 -385 -615 -583
-305 -371 -531 -799 -660 -1250 -37 -133 -90 -377 -100 -470 -4 -33 -9 -67
-10 -76 -12 -64 -20 -228 -20 -419 0 -276 8 -370 52 -615 84 -473 263 -915
535 -1319 58 -86 145 -205 158 -216 3 -3 13 -14 21 -26 35 -51 124 -149 254
-279 570 -571 1319 -923 2130 -1002 160 -16 670 -8 745 12 8 2 42 6 75 10 138
15 425 81 586 136 430 145 813 358 1151 640 178 149 386 365 518 539 19 25 37
47 41 50 14 11 170 252 223 343 223 387 388 875 431 1272 3 33 8 67 10 75 17
66 26 494 13 640 -20 227 -70 519 -113 660 -54 175 -69 221 -101 308 -20 53
-42 111 -49 127 -62 138 -132 278 -185 370 -57 100 -202 322 -243 370 -9 11
-39 49 -67 84 -387 489 -951 891 -1546 1101 -185 65 -458 135 -604 155 -25 3
-56 8 -70 10 -14 2 -52 7 -85 11 -33 3 -73 8 -90 11 -35 5 -521 13 -526 9z
m-262 -248 c-126 -217 -181 -378 -232 -683 -18 -106 -24 -494 -11 -674 6 -90
25 -244 42 -346 5 -34 23 -137 30 -175 2 -14 11 -65 20 -114 18 -103 17 -96
15 -116 -1 -13 -63 -93 -165 -210 -41 -48 -223 -276 -267 -335 -24 -33 -50
-66 -57 -74 -22 -23 -157 -233 -207 -321 -112 -197 -220 -469 -270 -674 -75
-309 -91 -716 -39 -983 9 -43 18 -89 20 -103 3 -14 14 -56 25 -95 97 -336 243
-598 447 -802 256 -256 603 -444 882 -478 30 -4 66 -9 80 -11 14 -2 83 -6 155
-9 71 -4 131 -7 131 -8 1 -1 5 -26 9 -55 l6 -52 -98 5 c-365 18 -496 47 -723
157 -146 71 -279 156 -415 267 -77 63 -247 246 -307 331 -188 265 -330 647
-373 1000 -14 123 -12 522 4 620 6 36 13 83 16 105 4 22 17 87 31 145 67 285
173 549 326 810 77 133 87 148 172 265 106 147 374 482 444 554 19 20 22 32
18 63 -7 47 -41 247 -50 293 -2 11 -7 43 -10 70 -3 28 -9 66 -11 85 -25 162
-30 267 -29 545 2 267 5 309 39 490 27 146 132 512 148 516 56 11 197 37 210
38 17 1 17 -3 -6 -41z m1103 11 c232 -49 464 -123 650 -206 836 -374 1483
-1086 1778 -1958 36 -104 83 -271 96 -339 3 -11 11 -52 19 -91 8 -38 18 -90
21 -115 3 -25 8 -58 11 -75 20 -126 29 -268 29 -465 0 -91 -3 -205 -7 -255 -6
-89 -45 -384 -52 -394 -1 -4 -6 -22 -9 -42 -10 -62 -74 -301 -106 -394 -297
-856 -906 -1544 -1700 -1921 -180 -86 -484 -194 -610 -218 -14 -3 -68 -14
-120 -25 -52 -11 -120 -24 -151 -29 l-55 -8 2 105 c2 108 12 219 19 231 2 4
35 19 72 35 349 144 517 241 650 374 174 172 313 432 379 704 24 98 29 155 28
337 0 183 -9 291 -30 362 -5 16 -10 40 -20 87 -9 43 -75 213 -109 282 -89 177
-257 376 -405 481 -131 92 -307 168 -450 193 -69 12 -301 13 -355 2 -17 -4
-78 -13 -150 -23 -11 -1 -41 -5 -67 -9 -46 -6 -47 -6 -54 22 -3 15 -18 71 -31
123 -55 205 -70 278 -72 358 l-2 84 48 56 c26 31 50 59 54 62 13 11 179 210
258 310 45 58 89 113 98 124 34 41 156 233 197 309 73 133 148 322 186 467 13
48 15 56 30 140 6 30 12 66 15 80 9 42 19 190 19 285 1 308 -60 612 -175 868
l-48 108 37 -6 c20 -4 57 -11 82 -16z m-325 -272 c24 -37 64 -162 85 -269 47
-228 12 -460 -95 -641 -19 -32 -35 -62 -35 -67 0 -5 -4 -10 -8 -12 -5 -1 -23
-25 -41 -52 -19 -26 -68 -89 -109 -140 -107 -129 -200 -232 -401 -445 -29 -31
-52 -48 -52 -40 -1 8 -3 23 -4 34 -2 11 -6 54 -10 95 -4 41 -9 84 -11 95 -23
119 -23 494 0 623 57 326 230 592 503 772 116 77 152 86 178 47z m-2774 -1636
c0 -9 2 -24 4 -33 2 -9 6 -36 9 -59 7 -47 34 -185 42 -212 8 -26 40 -40 64
-27 38 20 14 78 -26 63 -18 -6 -18 -6 -1 14 31 36 57 36 72 0 7 -17 11 -38 10
-46 -2 -9 -4 -24 -4 -33 -1 -22 -50 -48 -99 -53 -36 -3 -37 -4 -34 -42 7 -79
125 -188 147 -135 23 54 5 88 -40 80 -14 -3 -25 -1 -25 4 0 13 52 30 76 24 24
-6 57 -66 57 -103 -1 -58 -79 -94 -178 -81 -28 4 -31 -31 -6 -79 23 -45 94
-123 113 -124 7 0 23 -2 35 -5 42 -7 64 79 31 121 -19 24 -20 24 -59 8 -48
-19 -56 -14 -29 20 21 27 67 42 98 33 29 -10 53 -61 55 -120 2 -45 -2 -59 -22
-80 -44 -47 -78 -45 -227 11 -15 6 8 -123 31 -171 48 -101 148 -112 175 -18 7
28 6 36 -12 54 -17 17 -29 20 -69 15 -37 -5 -47 -3 -43 7 20 53 138 39 175
-20 26 -43 19 -84 -25 -127 -61 -61 -153 -69 -217 -18 -20 17 -39 28 -41 25
-3 -2 -4 -26 -2 -52 11 -140 101 -253 190 -239 102 17 146 131 68 182 -50 32
-119 -20 -103 -78 9 -35 -10 -32 -28 3 -10 19 -8 30 8 61 22 45 45 59 91 59
89 -1 142 -82 116 -180 -12 -44 -42 -76 -93 -101 -56 -28 -112 -26 -178 4 -31
14 -57 23 -59 21 -5 -5 -1 -95 6 -144 15 -98 19 -117 32 -142 18 -35 109 -78
166 -78 73 0 151 62 164 130 10 46 -13 102 -50 128 -57 39 -119 24 -151 -38
-20 -39 -19 -72 5 -102 30 -39 55 -41 92 -7 38 37 62 25 38 -19 -21 -37 -59
-48 -110 -33 -56 17 -83 59 -77 123 8 90 81 148 169 134 55 -9 84 -30 108 -81
41 -85 20 -202 -47 -261 -67 -59 -108 -66 -298 -51 l-30 2 1 -80 c1 -118 13
-277 24 -315 13 -44 24 -50 93 -50 92 0 115 -21 123 -113 2 -29 6 -65 9 -82
l5 -30 -321 -2 -321 -1 4 99 c3 70 8 103 19 114 9 10 41 16 89 19 93 5 86 3
87 24 0 9 3 96 7 192 4 96 9 189 10 207 3 27 1 31 -17 27 -170 -32 -273 -17
-340 50 -39 39 -56 78 -63 144 -12 110 49 192 143 192 58 0 87 -13 118 -54 74
-97 33 -209 -75 -210 -46 0 -80 26 -80 61 0 30 17 29 42 -2 48 -61 129 2 105
80 -28 93 -135 118 -188 43 -45 -62 -23 -151 50 -201 39 -27 55 -32 101 -31
75 0 114 23 145 84 42 83 86 312 63 326 -5 3 -26 -5 -46 -18 -63 -40 -88 -47
-160 -43 -86 4 -128 26 -152 78 -40 89 28 179 129 171 42 -3 68 -28 76 -75 5
-27 2 -40 -10 -52 -23 -23 -35 -21 -36 6 -2 70 -26 94 -69 72 -37 -19 -52 -62
-35 -102 29 -68 96 -71 186 -10 52 35 70 55 96 105 36 70 52 132 34 132 -7 0
-33 -11 -59 -25 -59 -32 -112 -32 -178 -1 -39 18 -54 31 -63 56 -40 116 31
188 136 138 26 -13 36 -34 28 -59 -6 -17 -9 -17 -46 8 -32 21 -42 23 -54 13
-24 -20 -19 -73 10 -100 20 -19 31 -22 66 -16 69 11 144 80 155 143 2 15 6 33
8 39 2 6 0 17 -4 24 -7 11 -15 12 -49 0 -61 -20 -120 -8 -155 31 -25 28 -28
38 -23 77 9 84 68 125 137 96 40 -17 35 -37 -11 -39 -54 -2 -76 -14 -81 -40
-5 -25 21 -64 45 -66 56 -6 110 35 127 96 23 83 21 90 -30 89 -74 -2 -120 37
-120 104 0 56 55 99 112 87 38 -9 35 -23 -7 -40 -40 -17 -56 -42 -48 -73 4
-17 13 -22 39 -22 55 0 81 40 99 156 l6 41 -41 1 c-67 3 -109 34 -110 82 0 42
27 72 63 68 35 -3 40 -21 8 -26 -11 -2 -25 -10 -32 -18 -10 -12 -7 -19 12 -40
29 -31 60 -28 76 7 7 14 15 66 18 115 6 112 14 194 21 216 6 21 34 13 35 -11z
m2113 -1274 c14 -45 35 -120 48 -166 l22 -84 -59 -51 c-82 -70 -265 -252 -302
-301 -101 -133 -165 -352 -165 -560 0 -116 3 -140 28 -245 43 -179 214 -427
349 -506 39 -23 50 -25 71 -15 27 12 54 65 54 105 0 31 -27 78 -111 191 -78
106 -102 151 -121 225 -35 134 8 372 86 485 36 52 132 143 174 164 72 37 77
33 111 -76 37 -122 58 -201 65 -233 2 -14 16 -72 30 -130 13 -58 27 -116 29
-130 3 -14 17 -82 31 -152 14 -70 28 -140 31 -155 2 -15 7 -37 9 -48 2 -11 7
-40 11 -65 4 -25 9 -52 10 -61 2 -9 6 -40 10 -70 3 -30 8 -65 10 -79 3 -14 8
-56 11 -95 3 -38 8 -83 9 -100 10 -87 19 -284 20 -383 0 -89 -3 -115 -15 -123
-9 -6 -96 -8 -235 -6 -242 5 -294 14 -423 78 -187 92 -403 316 -529 549 -41
76 -99 231 -119 315 -23 99 -22 342 1 449 2 11 7 37 9 56 24 166 130 438 227
581 75 112 540 718 557 728 26 15 38 -3 66 -92z m701 -652 c217 -39 392 -141
510 -297 85 -113 163 -313 182 -468 15 -118 7 -319 -18 -415 -56 -219 -160
-417 -276 -526 -48 -45 -168 -131 -230 -164 -26 -15 -77 -42 -111 -61 -35 -20
-65 -34 -67 -32 -2 2 -6 64 -10 138 -4 74 -8 151 -10 170 -2 19 -6 78 -10 130
-3 52 -8 102 -10 110 -2 8 -7 47 -10 85 -14 137 -14 138 -50 355 -33 190 -29
172 -81 425 -25 121 -52 258 -60 304 -16 89 -25 227 -16 249 4 11 29 12 121 8
64 -4 130 -9 146 -11z"/>
<path d="M5367 5112 c-64 -64 -119 -120 -122 -123 -3 -3 35 -48 85 -100 49
-52 90 -96 90 -99 0 -3 -59 -65 -129 -138 l-129 -133 -38 33 c-21 18 -80 74
-131 123 l-94 91 106 106 105 107 -123 120 -122 120 -101 -102 c-83 -85 -104
-101 -117 -93 -14 9 -31 -4 -96 -68 -62 -62 -78 -83 -71 -95 7 -12 -14 -39
-92 -118 l-102 -102 123 -121 123 -122 100 101 c55 56 103 101 108 101 11 0
240 -240 240 -251 0 -6 -124 -133 -275 -283 l-276 -274 77 -80 77 -81 26 19
c14 10 141 133 281 274 140 141 260 256 265 256 6 0 134 -124 284 -275 l273
-276 82 78 c76 72 82 80 70 99 -7 11 -133 141 -281 287 l-268 267 145 140 145
140 143 -146 c79 -81 145 -145 146 -143 2 2 7 38 10 79 8 88 14 146 27 255 5
44 9 85 9 91 0 6 -21 31 -46 56 -36 35 -44 50 -37 62 7 13 -8 34 -68 96 -74
75 -99 93 -99 70 0 -26 -33 -3 -107 74 -45 46 -85 86 -90 89 -5 3 -62 -47
-126 -111z"/>
</g>
</svg>
