<?xml version="1.0" encoding="UTF-8" standalone="no"?>
<!DOCTYPE svg PUBLIC "-//W3C//DTD SVG 1.1//EN" "http://www.w3.org/Graphics/SVG/1.1/DTD/svg11.dtd">
<svg width="100%" height="100%" viewBox="0 0 463 129" version="1.1" xmlns="http://www.w3.org/2000/svg" xmlns:xlink="http://www.w3.org/1999/xlink" xml:space="preserve" xmlns:serif="http://www.serif.com/" style="fill-rule:evenodd;clip-rule:evenodd;stroke-linejoin:round;stroke-miterlimit:2;">
    <g transform="matrix(1.00022,0,0,0.99961,-153.083,-36.4348)">
        <g id="path2">
            <path d="M217.124,36.449C252.512,36.449 281.199,65.136 281.199,100.524C281.199,135.912 252.512,164.599 217.124,164.599C181.736,164.599 153.049,135.912 153.049,100.524C153.049,65.136 181.736,36.449 217.124,36.449ZM219.749,157.574C217.13,157.478 211.795,157.165 209.468,156.514C202.94,154.69 196.1,149.835 191.975,144.462C187.784,139.002 185.278,131.78 184.43,124.994C184.209,123.222 184.22,121.198 184.234,119.409C184.247,117.644 184.268,115.69 184.5,113.943C185.6,105.643 188.673,97.968 193.319,91.013C195.085,88.37 197.205,85.737 199.204,83.263C200.418,81.759 201.652,80.266 202.916,78.803C203.009,78.695 203.115,78.576 203.222,78.455C202.396,74.069 201.61,69.564 201.274,65.127C201.136,63.304 201.159,61.364 201.18,59.534C201.201,57.615 201.199,55.423 201.436,53.524C201.845,50.25 203.346,44.453 204.566,41.084C206.016,40.766 207.484,40.499 208.971,40.29C206.279,44.309 204.791,48.724 204.053,54.698C203.811,56.584 203.73,63.336 203.905,65.721C204.175,69.211 204.808,73.456 205.994,79.696C206.075,80.06 205.94,80.248 204.848,81.515C201.601,85.275 197.194,90.854 195.469,93.441C190.928,100.233 188.138,107.483 187.114,115.138C186.831,117.348 186.79,123.345 187.047,125.447C187.909,132.293 190.443,138.856 194.014,143.505C197.881,148.545 204.255,152.938 209.983,154.528C212.018,155.108 215.144,155.472 218.095,155.512L219.416,155.525L219.551,156.024C219.624,156.296 219.692,156.859 219.749,157.574ZM226.513,40.473C255.003,45.082 276.789,70.334 276.789,100.799C276.789,131.804 254.225,157.411 224.993,161.351C224.956,159.812 224.996,158.215 225.103,157.048L225.278,155.162L225.75,154.933C226.006,154.798 227.07,154.353 228.108,153.935C232.448,152.197 235.601,150.418 237.811,148.505C241.948,144.92 245.357,138.169 246.099,132.145C246.315,130.393 246.274,126.054 246.031,124.167C245.034,116.445 240.991,109.559 235.143,105.651C233.728,104.694 231.073,103.441 229.59,103.009C227.542,102.416 225.939,102.228 223.661,102.322C221.949,102.376 220.736,102.524 216.491,103.171C216.101,103.239 216.047,103.198 215.98,102.861C215.898,102.457 215.441,100.638 214.551,97.282C214.147,95.705 214.039,95.032 213.998,93.832C213.958,92.35 213.958,92.35 214.363,91.865C214.592,91.595 215.777,90.207 217.017,88.779C223.553,81.205 226.383,76.812 228.512,70.936C230.277,66.044 230.965,61.233 230.628,55.937C230.268,50.12 228.85,44.832 226.513,40.473ZM222.744,45.763C223.001,46.1 223.728,48.175 224.133,49.779C225.157,53.781 224.955,57.393 223.513,60.87C222.354,63.659 220.143,66.664 215.319,71.947C212.098,75.491 210.791,76.839 210.711,76.758C210.656,76.718 210.576,76.017 210.508,75.222C210.455,74.427 210.306,73.039 210.185,72.149C209.848,69.616 209.767,64.441 210.023,62.244C210.508,58.107 211.991,54.455 214.484,51.288C216.088,49.227 217.718,47.811 220.494,46.1C221.478,45.494 221.693,45.413 222.112,45.48C222.367,45.52 222.65,45.655 222.745,45.763L222.744,45.763ZM210.347,98.711C210.684,99.708 211.869,103.926 211.869,104.141C211.869,104.209 211.182,104.829 210.36,105.516C208.298,107.214 205.886,109.653 205.023,110.934C202.234,115.003 201.371,121.323 202.921,126.282C203.878,129.315 206.371,132.872 208.716,134.557C209.174,134.88 209.727,135.19 209.942,135.231C210.495,135.338 211.02,134.867 211.33,133.95C211.546,133.304 211.546,133.169 211.384,132.684C211.155,132.037 210.239,130.649 209.08,129.194C208.029,127.859 207.489,126.835 207.139,125.474C206.493,122.941 207.207,118.979 208.729,116.567C209.686,115.057 211.896,113.251 212.88,113.157L213.419,113.116L213.931,114.666C215.279,118.79 217.341,128.318 218.203,134.382C218.769,138.438 219.227,144.987 219.12,147.548C219.079,148.478 219.052,148.559 218.742,148.64C218.554,148.693 216.936,148.734 215.158,148.747C211.465,148.761 210.32,148.626 208.191,147.898C203.595,146.322 198.339,140.81 195.968,135.042C194.715,132.024 194.256,129.584 194.405,126.66C194.661,121 196.305,115.623 199.094,111.257C199.485,110.65 201.371,108.13 203.285,105.664C205.186,103.185 207.274,100.449 207.894,99.573C208.959,98.09 209.457,97.633 209.902,97.74C209.97,97.754 210.171,98.185 210.347,98.711ZM223.796,111.634C225.373,111.917 227.124,112.51 228.566,113.252C232.474,115.273 235.223,119.544 236.207,125.177C236.517,126.943 236.517,130.204 236.207,131.983C235.682,134.907 234.401,138.276 233,140.433C231.315,143.007 229.388,144.583 224.968,146.982C224.133,147.44 223.392,147.817 223.324,147.817C223.243,147.817 223.189,147.17 223.189,146.281C223.189,144.489 222.758,138.896 222.381,135.662C221.815,130.824 220.952,125.986 219.335,118.439C218.702,115.529 218.58,114.733 218.54,113.265C218.513,112.308 218.526,111.459 218.567,111.391C218.675,111.203 222.3,111.378 223.796,111.634ZM247.184,73.706L242.689,69.275L238.964,73.058C238.64,72.855 238.698,72.828 238.392,72.667C237.966,73.179 237.124,73.881 236.629,74.378C235.129,75.884 235.322,75.44 235.727,76.194L232.099,79.848C232.66,80.898 235.508,83.175 236.469,84.373C237.662,83.67 239.379,81.106 240.447,80.623L244.923,85.289C244.369,86.057 243.103,87.201 242.362,87.965C241.913,88.428 241.459,88.724 241.013,89.181C239.993,90.224 235.05,95.144 234.738,95.68L237.511,98.576C238.268,98.213 244.285,91.987 245.413,90.863C246.221,90.058 247.153,88.981 247.989,88.323C248.903,89.087 250.459,90.856 251.951,92.195C253.446,93.536 256.476,96.903 258.314,98.67C259.042,97.858 260.359,96.349 261.361,95.775C261.163,95.07 260.805,94.916 260.076,94.19L253.576,87.702C252.863,86.992 251.541,85.844 251.01,85.088L256.295,79.989C256.948,80.436 261.155,85.068 261.727,85.442C261.731,83.767 262.047,81.45 262.23,79.726C262.283,79.233 262.316,78.723 262.372,78.22C262.454,77.498 262.609,77.534 262.269,77.048C262.057,76.746 261.016,75.738 260.733,75.561C260.962,75.086 260.943,75.463 261.123,74.869C259.979,74.147 259.216,72.64 258.056,72.012L257.564,72.538L254.228,69.127C253.526,69.433 252.451,70.724 251.847,71.323C251.163,72.001 250.084,72.906 249.599,73.656L252.118,76.324C252.605,76.736 252.517,76.541 252.99,77.179L248.174,82.139C247.508,81.877 245.396,79.619 244.516,78.788C244.11,78.405 243.653,78.084 243.346,77.539L247.184,73.706ZM169.69,110.206C169.165,110.276 165.338,111.6 163.141,109.44C160.802,107.141 161.745,102.076 165.849,103.351C167.038,103.721 168.473,106.507 166.588,107.783C166.367,107.933 166.227,107.963 165.929,108.025C164.044,108.415 163.553,106.978 164.039,106.45C164.732,106.54 164.136,106.531 164.802,107.139C165.861,108.107 167.214,106.638 166.56,105.199C166.212,104.435 165.534,103.665 164.52,103.861C162.441,104.264 162.17,106.86 163.583,108.08L164.63,108.808C165.655,109.394 167.094,108.974 168.121,108.371C168.348,107.941 168.68,107.372 169.017,106.599C169.382,105.764 170.107,101.947 169.899,101.228C169.289,101.283 168.235,102.748 166.328,102.606C165.558,102.549 164.674,102.577 164.096,102.201C162.09,100.895 163.042,98.515 164.26,98.106C164.482,98.031 165.119,97.908 165.376,97.9C167.241,97.841 167.542,100.545 166.225,100.628C165.809,99.803 166.449,99.011 165.379,98.647C165.057,98.613 163.53,99.217 164.204,100.895C164.656,102.023 166.199,101.879 166.989,101.377C167.401,101.116 167.652,100.822 168.08,100.572C168.69,100.216 168.705,100.3 169.116,99.573L169.787,98.211C170.016,97.575 170.185,97.137 170.146,96.409C169.071,96.673 168.252,98.297 165.644,97.041C165.033,96.748 164.72,96.728 164.496,96.072C163.034,91.778 168.675,92.879 167.385,94.866C167.062,94.771 167.074,94.69 166.75,94.392C164.863,92.658 164.527,97.584 167.941,96.072L168.656,95.617C169.747,94.775 170.235,93.187 170.031,92.3L169.841,92.254C169.247,92.272 169.613,92.355 168.954,92.589C168.294,92.824 166.02,92.83 165.8,91.114C165.734,90.605 165.787,90.103 165.952,89.629C166.442,88.224 168.67,88.192 169.01,89.504C164.777,88.698 166.965,92.945 168.93,90.944C169.552,90.31 169.472,90.811 169.821,89.676C170.029,88.993 170.163,88.581 170.071,87.902C168.584,88.277 167.294,87.97 167.047,86.369C166.927,85.595 167.437,84.356 168.843,84.414C169.415,84.438 169.533,84.568 169.696,84.911C169.094,85.448 167.522,85.166 168.196,86.903C169.86,87.468 170.412,85.889 170.528,84.613C170.577,84.075 170.669,83.709 170.849,83.298C166.097,83.833 168.211,78.824 169.952,80.969C167.809,81.031 168.515,82.199 169.608,82.58C170.707,82.466 170.543,80.84 170.676,79.304C170.759,78.339 170.78,76.149 171.141,75.588L171.613,75.646C171.649,75.715 172.185,80.077 172.66,81.509C172.877,82.167 172.7,81.95 173.169,82.172C173.509,82.334 173.871,82.427 174.085,82.09C174.202,81.799 174.297,81.4 174.056,81.13C173.719,80.75 173.488,80.984 173.017,81.085C174.45,79.283 175.102,80.683 174.821,82.206C174.656,83.093 173.081,83.293 172.24,83.174C172.193,83.753 172.381,84.355 172.58,84.887L173.547,86.138C174.818,87.136 175.232,86.822 175.299,85.395C174.253,84.285 174.797,85.257 173.621,84.978C174.756,84.139 175.514,84.151 175.979,85.146C176.513,86.286 176.453,86.814 175.813,87.27C175.014,87.756 174.724,88.1 173.715,87.916C173.368,87.853 173.006,87.671 172.525,87.827C172.461,88.685 172.95,89.665 173.609,90.283C174.074,90.72 174.213,91.741 176.045,91.72C176.477,91.257 176.547,91.01 176.533,90.153C176.519,89.325 176.004,89.108 175.685,89.077C175.108,89.021 175.111,89.493 174.232,89.661C174.301,88.196 177.267,87.221 177.407,90.167C177.441,90.879 177.536,91.639 177.024,92.088C175.41,93.501 173.591,91.841 172.671,91.722C172.86,93.324 173.062,95.223 174.366,96.251C174.938,96.56 176.015,96.651 176.276,96.148C177.832,93.165 174.526,93.958 174.283,94.273C174.163,92.341 179.115,93.276 177.579,96.121C177.564,96.148 177.541,96.183 177.524,96.208C176.968,97.041 175.988,97.549 174.962,97.589C173.302,97.654 173.358,96.926 172.356,96.327C172.219,96.733 172.182,100.133 174.306,101.426C175.317,102.041 174.663,101.799 175.74,101.951C179.727,100.743 177.06,97.125 175.654,98.574C174.669,99.589 175.157,99.514 175.323,100.531C174.753,100.268 174.267,99.771 174.668,98.947C174.971,98.325 175.226,97.764 176.001,97.668C177.686,97.46 178.816,98.486 178.765,100.117C178.709,101.895 177.86,102.456 176.462,103.036C174.525,103.838 173.074,102.255 172.481,102.3C172.451,102.503 172.576,107.387 173.509,108.074C174.538,108.832 176.349,109.544 177.538,108.852L178.563,108.124C179.935,106.903 179.581,104.307 177.49,103.905C176.469,103.708 175.816,104.478 175.493,105.242C174.885,106.681 176.285,108.151 177.313,107.183C177.959,106.575 177.364,106.583 178.054,106.494C178.557,107.022 178.112,108.459 176.214,108.068C175.914,108.007 175.774,107.977 175.547,107.827C173.621,106.551 174.967,103.764 176.145,103.394C180.207,102.119 181.312,107.184 179.048,109.483C176.92,111.644 173.362,110.365 172.835,110.295C172.767,111.781 172.982,117.462 173.523,118.521C174.684,118.962 175.764,118.221 176.653,118.991C177.674,119.875 177.071,121.806 177.635,122.874C175.526,122.771 170.362,122.819 168.275,122.859C167.418,122.876 166.594,122.879 165.74,122.895C165.791,122.217 165.464,119.168 166.412,118.733C167.22,118.5 168.798,118.759 169.295,118.471C169.635,117.083 169.445,112.793 169.73,110.931C169.779,110.616 169.704,110.232 169.69,110.206Z"/>
        </g>
    </g>
    <g id="Text" transform="matrix(0.999972,0,0,1,-20.2285,-4.13575)">
        <g transform="matrix(1.86293,0,0,1.86225,-86.0099,-292.425)">
            <g id="path4">
                <path d="M287.597,198.039C287.955,198.641 289.137,201.018 290.321,204.345L291.826,208.631C292.497,210.529 293.122,212.483 293.259,214.057L299.531,214.057C299.668,212.483 300.293,210.54 300.952,208.642L302.48,204.345C303.204,202.268 304.077,200.005 305.193,198.039L301.531,198.039C301.531,199.41 300.594,202.058 299.813,204.291L297.702,210.262C297.702,210.262 296.307,206.322 295.614,204.356C294.897,202.314 293.926,200.15 293.873,198.039L287.597,198.039ZM281.466,198.035C281.958,199.868 281.958,202.211 281.958,204.364L281.958,207.743C281.958,209.896 281.958,212.228 281.466,214.061L287.182,214.061C286.69,212.24 286.69,209.931 286.69,207.789L286.69,204.352C286.69,202.199 286.69,199.867 287.182,198.035L281.466,198.035ZM274.284,198.035C274.772,199.864 274.772,202.207 274.772,204.364L274.772,206.65L273.891,203.884C273.19,203.693 272.432,203.594 271.632,203.594C270.416,203.594 269.125,203.826 267.89,204.352C267.89,202.196 267.89,199.864 268.378,198.046L262.666,198.046C263.158,199.864 263.158,202.207 263.158,204.364L263.158,207.747C263.158,209.9 263.158,212.243 262.666,214.065L268.378,214.065C267.89,212.255 267.89,209.946 267.89,207.789L267.89,206.383C268.511,206.25 269.113,206.193 269.692,206.193C271.464,206.193 273.125,206.741 274.772,207.644C274.772,209.843 274.772,212.156 274.284,214.065L279.995,214.065C279.516,212.243 279.504,209.934 279.504,207.789L279.504,204.352C279.504,202.196 279.504,199.864 279.995,198.035L274.284,198.035ZM255.583,197.92C250.873,197.92 247.048,201.62 247.048,206.044C247.048,210.475 250.873,214.175 255.583,214.175C257.423,214.175 259.302,213.672 260.605,213.284L261.554,209.805C258.887,211.344 257.827,211.958 256.006,211.958C253.605,211.958 252.146,209.18 252.146,206.044C252.146,202.916 253.651,200.138 256.006,200.138C257.827,200.138 258.887,200.751 261.554,202.291L260.605,198.812C259.302,198.423 257.423,197.92 255.583,197.92ZM231.284,198.039C231.776,199.871 231.776,202.207 231.776,204.36L231.776,207.743C231.776,209.908 231.776,212.24 231.284,214.072L236.996,214.072C236.509,212.24 236.509,209.908 236.509,207.743L236.509,200.386L238.501,200.386C240.113,200.386 241.081,201.727 241.081,203.053C241.081,204.349 240.17,205.633 238.033,205.633L236.985,205.633L238.955,208.825C240.048,210.624 241.081,212.453 241.671,214.072L248.198,214.072C247.349,213.002 246.221,211.649 244.651,209.092L243.424,207.107C245.051,206.337 246.179,205.019 246.179,202.885C246.179,198.866 241.797,198.039 238.768,198.039L231.284,198.039ZM220.067,200.557L222.063,206.204C220.6,206.337 219.049,206.749 217.632,207.477C218.425,205.21 219.251,202.855 220.067,200.557ZM218.158,196.595C218.024,198.237 217.365,200.268 216.683,202.241L214.416,208.627C213.803,210.277 212.888,212.689 212.027,214.061L215.845,214.061C215.845,213.169 216.458,210.99 216.938,209.508C218.234,209.062 219.495,208.848 220.715,208.848C221.518,208.848 222.311,208.94 223.069,209.104C225.146,215.376 228.484,220.87 239.008,220.87L239.781,219.529C231.677,219.529 228.952,210.289 228.369,208.635L226.106,202.23C225.447,200.367 224.811,198.393 224.631,196.595L218.158,196.595Z"/>
            </g>
        </g>
        <g transform="matrix(1.86293,0,0,1.86225,-86.0099,-292.425)">
            <g id="path6">
                <path d="M203.638,198.035L197.511,206.372L197.511,204.364C197.511,202.199 197.511,199.867 198.003,198.035L192.287,198.035C192.779,199.867 192.779,202.211 192.779,204.364L192.779,207.743C192.779,209.896 192.779,212.228 192.287,214.061L198.003,214.061C197.576,212.487 197.523,210.532 197.511,208.646L198.471,207.709L201.371,210.612C202.377,211.695 203.269,212.51 204.332,214.061L211.998,214.061C210.192,212.731 207.144,209.686 205.178,207.72L201.863,204.417L208.428,198.035L203.638,198.035Z"/>
            </g>
        </g>
        <g transform="matrix(1.86293,0,0,1.86225,-86.0099,-292.425)">
            <g id="path8">
                <path d="M185.109,198.035C185.6,199.867 185.6,202.211 185.6,204.364L185.6,207.743C185.6,209.896 185.6,212.228 185.109,214.061L190.824,214.061C190.333,212.239 190.333,209.931 190.333,207.789L190.333,204.352C190.333,202.199 190.333,199.867 190.824,198.035L185.109,198.035Z"/>
            </g>
        </g>
        <g transform="matrix(1.86293,0,0,1.86225,-86.0099,-292.425)">
            <g id="path10">
                <path d="M176.955,197.92C173.56,197.92 168.648,199.334 168.648,203.007C168.648,205.613 171.159,206.962 173.67,207.759C176.174,208.551 178.685,208.73 178.685,210.327C178.685,211.268 177.782,211.958 175.937,211.958L175.659,211.958C172.779,211.958 170.321,210.662 168.648,209.812L169.708,213.276C172.054,213.821 174.295,214.175 176.539,214.175C181.294,214.175 184.232,211.939 184.232,209.031C184.232,206.372 181.744,205.087 179.264,204.383C176.776,203.666 174.295,203.468 174.295,201.891C174.295,200.839 175.244,200.138 177.134,200.138C179.176,200.138 180.357,200.751 183.341,202.283L182.278,198.812C180.525,198.256 178.818,197.92 176.955,197.92Z"/>
            </g>
        </g>
        <g transform="matrix(1.86293,0,0,1.86225,-86.0099,-292.425)">
            <g id="path12">
                <path d="M152.382,198.027C152.873,199.856 152.873,202.192 152.873,204.345L152.873,209.626C154.043,212.887 157.293,214.171 160.955,214.171C163.237,214.171 166.099,212.64 167.181,209.626L167.181,204.322C167.181,202.169 167.181,199.845 167.673,198.027L163.786,198.027C164.213,199.624 164.266,201.597 164.278,203.506L164.278,209.626C163.889,211.078 162.689,211.824 160.955,211.824C159.656,211.824 158.299,211.176 157.884,209.626L157.895,204.345C157.895,202.192 157.895,199.856 158.387,198.027L152.382,198.027Z"/>
            </g>
        </g>
        <g transform="matrix(1.86293,0,0,1.86225,-86.0099,-292.425)">
            <g id="path14">
                <path d="M130.937,198.035C131.429,199.867 131.429,202.199 131.429,204.352L131.429,207.732C131.429,209.896 131.429,212.228 130.937,214.061L134.702,214.061C134.211,212.228 134.211,209.896 134.211,207.732L134.211,204.722L136.234,209.572C136.87,211.157 137.495,212.742 137.609,214.061L142.368,214.061C142.479,212.742 143.119,211.169 143.744,209.584L145.965,204.242L145.965,207.732C145.965,209.896 145.965,212.228 145.474,214.061L151.189,214.061C150.698,212.228 150.698,209.896 150.698,207.732L150.698,204.352C150.698,202.176 150.709,199.921 151.189,198.035L145.474,198.035C145.363,199.353 144.738,200.927 144.102,202.512L141.263,209.328L138.425,202.512C137.788,200.927 137.16,199.353 137.049,198.035L130.937,198.035Z"/>
            </g>
        </g>
        <g transform="matrix(1.86293,0,0,1.86225,-86.0099,-292.425)">
            <g id="path16">
                <path d="M297.117,173.773C293.353,173.773 287.908,175.34 287.908,179.412C287.908,182.302 290.692,183.797 293.476,184.68C296.251,185.559 299.035,185.757 299.035,187.527C299.035,188.57 298.034,189.335 295.989,189.335L295.681,189.335C292.487,189.335 289.763,187.899 287.908,186.957L289.083,190.796C291.685,191.4 294.168,191.793 296.656,191.793C301.928,191.793 305.185,189.314 305.185,186.091C305.185,183.142 302.427,181.719 299.677,180.937C296.918,180.143 294.168,179.924 294.168,178.175C294.168,177.009 295.22,176.232 297.315,176.232C299.579,176.232 300.889,176.912 304.197,178.61L303.018,174.762C301.075,174.145 299.182,173.773 297.117,173.773ZM278.096,173.773C272.862,173.773 268.634,177.875 268.634,182.775C268.634,187.688 272.862,191.662 278.096,191.662C280.267,191.662 284.103,191.193 286.553,189.343L286.553,187.97C286.553,185.571 286.553,182.986 287.097,180.954L280.761,180.954C281.306,182.986 281.306,185.571 281.306,187.97L281.306,188.638C280.389,188.95 279.583,189.06 278.565,189.06C275.9,189.06 274.286,186.251 274.286,182.775C274.286,179.311 275.958,176.232 278.565,176.232C280.601,176.232 281.779,176.912 284.72,178.618L283.672,174.762C282.223,174.318 280.153,173.773 278.096,173.773ZM251.159,173.904C251.704,175.936 251.704,178.525 251.704,180.912L251.704,184.663C251.704,187.062 251.704,189.647 251.159,191.679L257.491,191.679C256.95,189.647 256.95,187.062 256.95,184.663L256.95,176.506L259.159,176.506C260.946,176.506 262.019,177.993 262.019,179.463C262.019,180.899 261.009,182.323 258.64,182.323L257.478,182.323L259.662,185.863C260.874,187.857 262.019,189.884 262.674,191.679L269.91,191.679C268.968,190.492 267.717,188.993 265.977,186.158L264.617,183.957C266.42,183.104 267.671,181.643 267.671,179.277C267.671,174.821 262.813,173.904 259.455,173.904L251.159,173.904ZM243.213,173.9C243.758,175.932 243.758,178.53 243.758,180.916L243.758,184.663C243.758,187.05 243.758,189.635 243.213,191.667L249.549,191.667C249.005,189.647 249.005,187.088 249.005,184.714L249.005,180.904C249.005,178.517 249.005,175.932 249.549,173.9L243.213,173.9ZM233.038,183.109L233.038,183.121C235.437,183.121 236.476,184.583 236.476,186.04C236.476,187.552 235.399,189.06 233.549,189.06L231.331,189.06L231.331,183.121L233.038,183.109ZM231.331,176.511L233.038,176.511C234.546,176.511 235.238,177.533 235.238,178.572C235.238,179.67 234.482,180.785 233.135,180.785L231.331,180.785L231.331,176.511ZM225.552,173.9C226.085,175.928 226.085,178.264 226.085,180.65L226.085,184.655C226.085,187.046 226.085,189.63 225.552,191.662L233.861,191.662C239.369,191.662 242.077,189.381 242.077,186.289C242.077,183.975 240.468,182.369 237.367,181.651C239.285,180.87 240.223,179.56 240.223,177.955C240.223,175.94 238.343,173.9 233.038,173.9L225.552,173.9ZM207.596,173.904C208.141,175.936 208.141,178.487 208.141,180.912L208.141,184.655C208.141,187.054 208.141,189.639 207.596,191.667L218.718,191.667C220.403,191.667 222.232,191.269 223.816,190.801L224.855,186.953C221.911,188.651 220.737,189.056 218.718,189.056L213.387,189.056L213.387,183.307C214.375,183.058 215.351,182.948 216.306,182.948C218.659,182.948 220.859,183.641 222.853,184.777L221.653,180.38C220.872,180.173 219.981,180.059 219.018,180.059C217.235,180.059 215.216,180.443 213.387,181.305L213.387,176.506L217.666,176.506C219.685,176.506 220.859,176.916 223.816,178.623L222.765,174.77C221.43,174.361 219.537,173.904 217.666,173.904L207.596,173.904ZM197.479,173.773C192.245,173.773 188.017,177.875 188.017,182.775C188.017,187.688 192.245,191.662 197.479,191.662C199.65,191.662 203.486,191.193 205.936,189.343L205.936,187.97C205.936,185.571 205.936,182.986 206.48,180.954L200.144,180.954C200.689,182.986 200.689,185.571 200.689,187.97L200.689,188.638C199.772,188.95 198.966,189.06 197.948,189.06C195.282,189.06 193.669,186.251 193.669,182.775C193.669,179.311 195.341,176.232 197.948,176.232C199.984,176.232 201.162,176.912 204.102,178.618L203.055,174.762C201.606,174.318 199.536,173.773 197.479,173.773ZM176.113,173.875C174.221,173.938 172.354,174.335 171.015,174.741L169.963,178.593C172.92,176.895 174.099,176.485 176.113,176.485L180.57,176.485L169.963,191.667L182.314,191.667C184.207,191.603 186.074,191.206 187.413,190.801L188.464,186.948C185.52,188.659 184.342,189.056 182.314,189.056L177.858,189.056L188.464,173.875L176.113,173.875ZM150.794,173.904C151.339,175.936 151.339,178.525 151.339,180.912L151.339,184.663C151.339,187.062 151.339,189.647 150.794,191.679L157.126,191.679C156.585,189.647 156.585,187.062 156.585,184.663L156.585,176.506L158.795,176.506C160.581,176.506 161.654,177.993 161.654,179.463C161.654,180.899 160.645,182.323 158.275,182.323L157.114,182.323L159.297,185.863C160.51,187.857 161.654,189.884 162.309,191.679L169.545,191.679C168.603,190.492 167.353,188.993 165.612,186.158L164.252,183.957C166.056,183.104 167.306,181.643 167.306,179.277C167.306,174.821 162.448,173.904 159.09,173.904L150.794,173.904ZM131.258,172.308C131.853,174.512 131.853,177.279 131.853,179.928L131.853,184.029C131.853,186.627 131.853,191.692 131.258,193.893L143.377,193.893C145.223,193.893 147.225,193.475 148.936,192.955L150.085,188.756C146.866,190.615 145.582,191.063 143.377,191.063L137.573,191.063L137.573,182.555C138.663,182.281 139.74,182.158 140.779,182.158C143.339,182.158 145.729,182.914 147.879,184.152L146.583,179.345C145.742,179.121 144.762,178.999 143.71,178.999C141.767,178.999 139.579,179.421 137.573,180.363L137.573,175.138L142.24,175.138C144.441,175.138 145.729,175.573 148.936,177.427L147.275,170.711C146.186,171.797 144.268,172.308 142.24,172.308L131.258,172.308Z"/>
            </g>
        </g>
    </g>
</svg>
