<?xml version="1.0" encoding="UTF-8" standalone="no"?>
<!DOCTYPE svg PUBLIC "-//W3C//DTD SVG 1.1//EN" "http://www.w3.org/Graphics/SVG/1.1/DTD/svg11.dtd">
<svg width="100%" height="100%" viewBox="0 0 129 129" version="1.1" xmlns="http://www.w3.org/2000/svg" xmlns:xlink="http://www.w3.org/1999/xlink" xml:space="preserve" xmlns:serif="http://www.serif.com/" style="fill-rule:evenodd;clip-rule:evenodd;stroke-linejoin:round;stroke-miterlimit:2;">
    <g transform="matrix(1.00039,0,0,0.99961,-153.109,-36.4348)">
        <g id="path2">
            <path d="M217.124,36.449C252.512,36.449 281.199,65.136 281.199,100.524C281.199,135.912 252.512,164.599 217.124,164.599C181.736,164.599 153.049,135.912 153.049,100.524C153.049,65.136 181.736,36.449 217.124,36.449ZM219.749,157.574C217.13,157.478 211.795,157.165 209.468,156.514C202.94,154.69 196.1,149.835 191.975,144.462C187.784,139.002 185.278,131.78 184.43,124.994C184.209,123.222 184.22,121.198 184.234,119.409C184.247,117.644 184.268,115.69 184.5,113.943C185.6,105.643 188.673,97.968 193.319,91.013C195.085,88.37 197.205,85.737 199.204,83.263C200.418,81.759 201.652,80.266 202.916,78.803C203.009,78.695 203.115,78.576 203.222,78.455C202.396,74.069 201.61,69.564 201.274,65.127C201.136,63.304 201.159,61.364 201.18,59.534C201.201,57.615 201.199,55.423 201.436,53.524C201.845,50.25 203.346,44.453 204.566,41.084C206.016,40.766 207.484,40.499 208.971,40.29C206.279,44.309 204.791,48.724 204.053,54.698C203.811,56.584 203.73,63.336 203.905,65.721C204.175,69.211 204.808,73.456 205.994,79.696C206.075,80.06 205.94,80.248 204.848,81.515C201.601,85.275 197.194,90.854 195.469,93.441C190.928,100.233 188.138,107.483 187.114,115.138C186.831,117.348 186.79,123.345 187.047,125.447C187.909,132.293 190.443,138.856 194.014,143.505C197.881,148.545 204.255,152.938 209.983,154.528C212.018,155.108 215.144,155.472 218.095,155.512L219.416,155.525L219.551,156.024C219.624,156.296 219.692,156.859 219.749,157.574ZM226.513,40.473C255.003,45.082 276.789,70.334 276.789,100.799C276.789,131.804 254.225,157.411 224.993,161.351C224.956,159.812 224.996,158.215 225.103,157.048L225.278,155.162L225.75,154.933C226.006,154.798 227.07,154.353 228.108,153.935C232.448,152.197 235.601,150.418 237.811,148.505C241.948,144.92 245.357,138.169 246.099,132.145C246.315,130.393 246.274,126.054 246.031,124.167C245.034,116.445 240.991,109.559 235.143,105.651C233.728,104.694 231.073,103.441 229.59,103.009C227.542,102.416 225.939,102.228 223.661,102.322C221.949,102.376 220.736,102.524 216.491,103.171C216.101,103.239 216.047,103.198 215.98,102.861C215.898,102.457 215.441,100.638 214.551,97.282C214.147,95.705 214.039,95.032 213.998,93.832C213.958,92.35 213.958,92.35 214.363,91.865C214.592,91.595 215.777,90.207 217.017,88.779C223.553,81.205 226.383,76.812 228.512,70.936C230.277,66.044 230.965,61.233 230.628,55.937C230.268,50.12 228.85,44.832 226.513,40.473ZM222.744,45.763C223.001,46.1 223.728,48.175 224.133,49.779C225.157,53.781 224.955,57.393 223.513,60.87C222.354,63.659 220.143,66.664 215.319,71.947C212.098,75.491 210.791,76.839 210.711,76.758C210.656,76.718 210.576,76.017 210.508,75.222C210.455,74.427 210.306,73.039 210.185,72.149C209.848,69.616 209.767,64.441 210.023,62.244C210.508,58.107 211.991,54.455 214.484,51.288C216.088,49.227 217.718,47.811 220.494,46.1C221.478,45.494 221.693,45.413 222.112,45.48C222.367,45.52 222.65,45.655 222.745,45.763L222.744,45.763ZM210.347,98.711C210.684,99.708 211.869,103.926 211.869,104.141C211.869,104.209 211.182,104.829 210.36,105.516C208.298,107.214 205.886,109.653 205.023,110.934C202.234,115.003 201.371,121.323 202.921,126.282C203.878,129.315 206.371,132.872 208.716,134.557C209.174,134.88 209.727,135.19 209.942,135.231C210.495,135.338 211.02,134.867 211.33,133.95C211.546,133.304 211.546,133.169 211.384,132.684C211.155,132.037 210.239,130.649 209.08,129.194C208.029,127.859 207.489,126.835 207.139,125.474C206.493,122.941 207.207,118.979 208.729,116.567C209.686,115.057 211.896,113.251 212.88,113.157L213.419,113.116L213.931,114.666C215.279,118.79 217.341,128.318 218.203,134.382C218.769,138.438 219.227,144.987 219.12,147.548C219.079,148.478 219.052,148.559 218.742,148.64C218.554,148.693 216.936,148.734 215.158,148.747C211.465,148.761 210.32,148.626 208.191,147.898C203.595,146.322 198.339,140.81 195.968,135.042C194.715,132.024 194.256,129.584 194.405,126.66C194.661,121 196.305,115.623 199.094,111.257C199.485,110.65 201.371,108.13 203.285,105.664C205.186,103.185 207.274,100.449 207.894,99.573C208.959,98.09 209.457,97.633 209.902,97.74C209.97,97.754 210.171,98.185 210.347,98.711ZM223.796,111.634C225.373,111.917 227.124,112.51 228.566,113.252C232.474,115.273 235.223,119.544 236.207,125.177C236.517,126.943 236.517,130.204 236.207,131.983C235.682,134.907 234.401,138.276 233,140.433C231.315,143.007 229.388,144.583 224.968,146.982C224.133,147.44 223.392,147.817 223.324,147.817C223.243,147.817 223.189,147.17 223.189,146.281C223.189,144.489 222.758,138.896 222.381,135.662C221.815,130.824 220.952,125.986 219.335,118.439C218.702,115.529 218.58,114.733 218.54,113.265C218.513,112.308 218.526,111.459 218.567,111.391C218.675,111.203 222.3,111.378 223.796,111.634ZM247.184,73.706L242.689,69.275L238.964,73.058C238.64,72.855 238.698,72.828 238.392,72.667C237.966,73.179 237.124,73.881 236.629,74.378C235.129,75.884 235.322,75.44 235.727,76.194L232.099,79.848C232.66,80.898 235.508,83.175 236.469,84.373C237.662,83.67 239.379,81.106 240.447,80.623L244.923,85.289C244.369,86.057 243.103,87.201 242.362,87.965C241.913,88.428 241.459,88.724 241.013,89.181C239.993,90.224 235.05,95.144 234.738,95.68L237.511,98.576C238.268,98.213 244.285,91.987 245.413,90.863C246.221,90.058 247.153,88.981 247.989,88.323C248.903,89.087 250.459,90.856 251.951,92.195C253.446,93.536 256.476,96.903 258.314,98.67C259.042,97.858 260.359,96.349 261.361,95.775C261.163,95.07 260.805,94.916 260.076,94.19L253.576,87.702C252.863,86.992 251.541,85.844 251.01,85.088L256.295,79.989C256.948,80.436 261.155,85.068 261.727,85.442C261.731,83.767 262.047,81.45 262.23,79.726C262.283,79.233 262.316,78.723 262.372,78.22C262.454,77.498 262.609,77.534 262.269,77.048C262.057,76.746 261.016,75.738 260.733,75.561C260.962,75.086 260.943,75.463 261.123,74.869C259.979,74.147 259.216,72.64 258.056,72.012L257.564,72.538L254.228,69.127C253.526,69.433 252.451,70.724 251.847,71.323C251.163,72.001 250.084,72.906 249.599,73.656L252.118,76.324C252.605,76.736 252.517,76.541 252.99,77.179L248.174,82.139C247.508,81.877 245.396,79.619 244.516,78.788C244.11,78.405 243.653,78.084 243.346,77.539L247.184,73.706ZM169.69,110.206C169.165,110.276 165.338,111.6 163.141,109.44C160.802,107.141 161.745,102.076 165.849,103.351C167.038,103.721 168.473,106.507 166.588,107.783C166.367,107.933 166.227,107.963 165.929,108.025C164.044,108.415 163.553,106.978 164.039,106.45C164.732,106.54 164.136,106.531 164.802,107.139C165.861,108.107 167.214,106.638 166.56,105.199C166.212,104.435 165.534,103.665 164.52,103.861C162.441,104.264 162.17,106.86 163.583,108.08L164.63,108.808C165.655,109.394 167.094,108.974 168.121,108.371C168.348,107.941 168.68,107.372 169.017,106.599C169.382,105.764 170.107,101.947 169.899,101.228C169.289,101.283 168.235,102.748 166.328,102.606C165.558,102.549 164.674,102.577 164.096,102.201C162.09,100.895 163.042,98.515 164.26,98.106C164.482,98.031 165.119,97.908 165.376,97.9C167.241,97.841 167.542,100.545 166.225,100.628C165.809,99.803 166.449,99.011 165.379,98.647C165.057,98.613 163.53,99.217 164.204,100.895C164.656,102.023 166.199,101.879 166.989,101.377C167.401,101.116 167.652,100.822 168.08,100.572C168.69,100.216 168.705,100.3 169.116,99.573L169.787,98.211C170.016,97.575 170.185,97.137 170.146,96.409C169.071,96.673 168.252,98.297 165.644,97.041C165.033,96.748 164.72,96.728 164.496,96.072C163.034,91.778 168.675,92.879 167.385,94.866C167.062,94.771 167.074,94.69 166.75,94.392C164.863,92.658 164.527,97.584 167.941,96.072L168.656,95.617C169.747,94.775 170.235,93.187 170.031,92.3L169.841,92.254C169.247,92.272 169.613,92.355 168.954,92.589C168.294,92.824 166.02,92.83 165.8,91.114C165.734,90.605 165.787,90.103 165.952,89.629C166.442,88.224 168.67,88.192 169.01,89.504C164.777,88.698 166.965,92.945 168.93,90.944C169.552,90.31 169.472,90.811 169.821,89.676C170.029,88.993 170.163,88.581 170.071,87.902C168.584,88.277 167.294,87.97 167.047,86.369C166.927,85.595 167.437,84.356 168.843,84.414C169.415,84.438 169.533,84.568 169.696,84.911C169.094,85.448 167.522,85.166 168.196,86.903C169.86,87.468 170.412,85.889 170.528,84.613C170.577,84.075 170.669,83.709 170.849,83.298C166.097,83.833 168.211,78.824 169.952,80.969C167.809,81.031 168.515,82.199 169.608,82.58C170.707,82.466 170.543,80.84 170.676,79.304C170.759,78.339 170.78,76.149 171.141,75.588L171.613,75.646C171.649,75.715 172.185,80.077 172.66,81.509C172.877,82.167 172.7,81.95 173.169,82.172C173.509,82.334 173.871,82.427 174.085,82.09C174.202,81.799 174.297,81.4 174.056,81.13C173.719,80.75 173.488,80.984 173.017,81.085C174.45,79.283 175.102,80.683 174.821,82.206C174.656,83.093 173.081,83.293 172.24,83.174C172.193,83.753 172.381,84.355 172.58,84.887L173.547,86.138C174.818,87.136 175.232,86.822 175.299,85.395C174.253,84.285 174.797,85.257 173.621,84.978C174.756,84.139 175.514,84.151 175.979,85.146C176.513,86.286 176.453,86.814 175.813,87.27C175.014,87.756 174.724,88.1 173.715,87.916C173.368,87.853 173.006,87.671 172.525,87.827C172.461,88.685 172.95,89.665 173.609,90.283C174.074,90.72 174.213,91.741 176.045,91.72C176.477,91.257 176.547,91.01 176.533,90.153C176.519,89.325 176.004,89.108 175.685,89.077C175.108,89.021 175.111,89.493 174.232,89.661C174.301,88.196 177.267,87.221 177.407,90.167C177.441,90.879 177.536,91.639 177.024,92.088C175.41,93.501 173.591,91.841 172.671,91.722C172.86,93.324 173.062,95.223 174.366,96.251C174.938,96.56 176.015,96.651 176.276,96.148C177.832,93.165 174.526,93.958 174.283,94.273C174.163,92.341 179.115,93.276 177.579,96.121C177.564,96.148 177.541,96.183 177.524,96.208C176.968,97.041 175.988,97.549 174.962,97.589C173.302,97.654 173.358,96.926 172.356,96.327C172.219,96.733 172.182,100.133 174.306,101.426C175.317,102.041 174.663,101.799 175.74,101.951C179.727,100.743 177.06,97.125 175.654,98.574C174.669,99.589 175.157,99.514 175.323,100.531C174.753,100.268 174.267,99.771 174.668,98.947C174.971,98.325 175.226,97.764 176.001,97.668C177.686,97.46 178.816,98.486 178.765,100.117C178.709,101.895 177.86,102.456 176.462,103.036C174.525,103.838 173.074,102.255 172.481,102.3C172.451,102.503 172.576,107.387 173.509,108.074C174.538,108.832 176.349,109.544 177.538,108.852L178.563,108.124C179.935,106.903 179.581,104.307 177.49,103.905C176.469,103.708 175.816,104.478 175.493,105.242C174.885,106.681 176.285,108.151 177.313,107.183C177.959,106.575 177.364,106.583 178.054,106.494C178.557,107.022 178.112,108.459 176.214,108.068C175.914,108.007 175.774,107.977 175.547,107.827C173.621,106.551 174.967,103.764 176.145,103.394C180.207,102.119 181.312,107.184 179.048,109.483C176.92,111.644 173.362,110.365 172.835,110.295C172.767,111.781 172.982,117.462 173.523,118.521C174.684,118.962 175.764,118.221 176.653,118.991C177.674,119.875 177.071,121.806 177.635,122.874C175.526,122.771 170.362,122.819 168.275,122.859C167.418,122.876 166.594,122.879 165.74,122.895C165.791,122.217 165.464,119.168 166.412,118.733C167.22,118.5 168.798,118.759 169.295,118.471C169.635,117.083 169.445,112.793 169.73,110.931C169.779,110.616 169.704,110.232 169.69,110.206Z"/>
        </g>
    </g>
    <g id="Text">
    </g>
</svg>
